#tb 0: 1/25
0,          0,          0,        1,   405504, 0x17e87a9d
0,          1,          1,        1,   405504, 0x9b07cfda
0,          2,          2,        1,   405504, 0x2efd2717
0,          3,          3,        1,   405504, 0xedeec4ba
0,          4,          4,        1,   405504, 0x78c9f3b5
0,          5,          5,        1,   405504, 0xd3c75d27
0,          6,          6,        1,   405504, 0x7b8c24e9
0,          7,          7,        1,   405504, 0x5d6ae060
0,          8,          8,        1,   405504, 0x12851e22
0,          9,          9,        1,   405504, 0x6c54eaf7
0,         10,         10,        1,   405504, 0x611e8652
0,         11,         11,        1,   405504, 0xe426baf9
0,         12,         12,        1,   405504, 0x72112b99
0,         13,         13,        1,   405504, 0xd3102813
0,         14,         14,        1,   405504, 0xe48ca25d
0,         15,         15,        1,   405504, 0xdd27a5f9
0,         16,         16,        1,   405504, 0x772f82c5
0,         17,         17,        1,   405504, 0xa96a87ee
0,         18,         18,        1,   405504, 0x78e5ab05
0,         19,         19,        1,   405504, 0x9b84a6e4
0,         20,         20,        1,   405504, 0xab23f602
0,         21,         21,        1,   405504, 0x18a7cb1d
0,         22,         22,        1,   405504, 0xd27fa825
0,         23,         23,        1,   405504, 0x444ebef2
0,         24,         24,        1,   405504, 0x51631604
0,         25,         25,        1,   405504, 0x95d090f9
0,         26,         26,        1,   405504, 0x97ae65ca
0,         27,         27,        1,   405504, 0x85afbb21
0,         28,         28,        1,   405504, 0xf78fb50c
0,         29,         29,        1,   405504, 0xbbb65a60
0,         30,         30,        1,   405504, 0x1c75aae0
0,         31,         31,        1,   405504, 0xd9637b9f
0,         32,         32,        1,   405504, 0xb849d40e
0,         33,         33,        1,   405504, 0xe9e4aff4
0,         34,         34,        1,   405504, 0x8832a687
0,         35,         35,        1,   405504, 0xf71521d0
0,         36,         36,        1,   405504, 0x49742a99
0,         37,         37,        1,   405504, 0x1aa2c332
0,         38,         38,        1,   405504, 0x4f366e7c
0,         39,         39,        1,   405504, 0x57039b9d
0,         40,         40,        1,   405504, 0xc27dac6b
0,         41,         41,        1,   405504, 0x8f85c9be
0,         42,         42,        1,   405504, 0xcfdaa27d
0,         43,         43,        1,   405504, 0x08ed5756
0,         44,         44,        1,   405504, 0x75c3b126
0,         45,         45,        1,   405504, 0xbce22eb4
0,         46,         46,        1,   405504, 0x623c66fa
0,         47,         47,        1,   405504, 0x5f963747
0,         48,         48,        1,   405504, 0xcb74b070
0,         49,         49,        1,   405504, 0xda8f6664
